<?xml version="1.0" encoding="UTF-8"?>
<svg id="Camada_2" data-name="Camada 2" xmlns="http://www.w3.org/2000/svg" viewBox="0 0 123.65 215.51">
  <defs>
    <style>
      .cls-1 {
        fill: #70d5ff;
      }

      .cls-1, .cls-2, .cls-3, .cls-4, .cls-5, .cls-6, .cls-7, .cls-8, .cls-9, .cls-10, .cls-11, .cls-12 {
        stroke-width: 0px;
      }

      .cls-2 {
        fill: #bddeff;
      }

      .cls-3 {
        fill: #d66f1a;
      }

      .cls-4 {
        fill: #99e4ff;
      }

      .cls-5 {
        fill: #f5d164;
      }

      .cls-6 {
        fill: #66707f;
      }

      .cls-7 {
        fill: #fa955a;
      }

      .cls-8 {
        fill: #1f3357;
      }

      .cls-9 {
        fill: #b6bfcd;
      }

      .cls-10 {
        fill: #4b4085;
      }

      .cls-13 {
        opacity: .61;
      }

      .cls-11 {
        fill: #6973db;
      }

      .cls-12 {
        fill: #db4ab3;
      }
    </style>
  </defs>
  <g id="Camada_2-2" data-name="Camada 2">
    <g>
      <g>
        <path class="cls-4" d="M55.94,189.64l-1.84-7.24c-.1-.39.22-.76.62-.73l7.45.72c.37.04.68-.27.64-.64l-.79-7.7c-.04-.39.31-.71.7-.63l8.72,1.81c.34.07.67-.17.7-.52l.49-5.7c.03-.3.28-.53.58-.53h1.48c.32,0,.58.26.58.58v10.31c0,.38-.35.66-.72.57l-8.01-1.92c-.39-.09-.76.23-.72.63l.88,8.87c.04.42-.36.74-.76.61l-7.56-2.45c-.47-.15-.9.31-.73.76l1.67,4.38c.2.53-.4,1.01-.87.69l-2.28-1.52c-.12-.08-.21-.2-.24-.34Z"/>
        <path class="cls-10" d="M79.93,173.43h-5.17c-.83,0-1.51-.68-1.51-1.51h0c0-.83.68-1.51,1.51-1.51h5.17c.83,0,1.51.68,1.51,1.51h0c0,.83-.68,1.51-1.51,1.51Z"/>
        <path class="cls-10" d="M79.93,177.9h-5.17c-.83,0-1.51-.68-1.51-1.51h0c0-.83.68-1.51,1.51-1.51h5.17c.83,0,1.51.68,1.51,1.51h0c0,.83-.68,1.51-1.51,1.51Z"/>
        <path class="cls-10" d="M70.86,184.35h-5.17c-.83,0-1.51-.68-1.51-1.51h0c0-.83.68-1.51,1.51-1.51h5.17c.83,0,1.51.68,1.51,1.51h0c0,.83-.68,1.51-1.51,1.51Z"/>
      </g>
      <g>
        <g>
          <polygon class="cls-10" points="17.62 12.16 21.55 8.98 25.28 13.6 20.34 15.53 17.62 12.16"/>
          <polygon class="cls-10" points="32.66 0 28.73 3.18 32.26 7.95 32.66 0"/>
          <polygon class="cls-10" points="38.13 26.17 42.06 23 33.23 12.07 38.13 26.17"/>
          <polygon class="cls-10" points="32.66 0 30.75 9 21.55 8.98 30.53 20.1 42.06 23 41.64 11.11 32.66 0"/>
          <polygon class="cls-2" points="28.73 3.18 26.82 12.17 17.62 12.16 26.6 23.27 38.13 26.17 37.72 14.29 28.73 3.18"/>
        </g>
        <path class="cls-12" d="M33.46,15.9c-1.23-1.52-3.3-1.89-4.63-.81-1.33,1.07-1.41,3.18-.18,4.7,1.23,1.52,3.3,1.89,4.63.81,1.33-1.07,1.41-3.18.18-4.7Z"/>
      </g>
      <g class="cls-13">
        <path class="cls-4" d="M123.65,34.84s-6.68.46-21.07,4.05c-14.58,3.64-16.3,37.05-16.3,68.02s-3.64,42.5-16.21,43.47c-.33.03-.66.04-1,.05-.35,0-.79,0-1.31,0-13.14-.61-12.63-18.41-12.63-18.41h-31.66s-.02-1.21-.04-3.34c-.09-10.67-.06-44.44,3.44-65.52,2.01-12.1,6.48-19.97,10.6-24.87,3.82-4.55,9.43-7.21,15.37-7.3,15.23-.23,70.81-.13,70.81-.13v3.98Z"/>
      </g>
      <path class="cls-11" d="M77.47,46.1l-.51,1.36c-3.45,9.18-5.31,18.88-5.52,28.69h0s-20.59,0-20.59,0l.34-8.82c.18-4.72,1.1-9.39,2.72-13.82l2.71-7.4h20.85Z"/>
      <polygon class="cls-10" points="58.16 47.56 73.96 47.56 70.39 62.79 66.67 57.16 61.66 60.7 54.44 60.7 58.16 47.56"/>
      <g class="cls-13">
        <path class="cls-1" d="M69.07,150.43c-.2,0-.4,0-.6,0-.24,0-.48,0-.71-.02.51,0,.95,0,1.31,0Z"/>
      </g>
      <g class="cls-13">
        <path class="cls-11" d="M67.76,150.43c-8.76-.06-39.27-.25-39.73.02l-9.49-21.76h4.9c.02,2.13.04,3.34.04,3.34h31.66s-.51,17.79,12.63,18.41Z"/>
      </g>
      <g>
        <polygon class="cls-5" points="79.04 108.56 64.16 108.56 64.85 92.77 79.73 92.77 79.04 108.56"/>
        <polygon class="cls-12" points="79.21 104.75 76.94 102.11 72.87 104.38 69.05 99.48 64.38 103.53 64.16 108.56 79.04 108.56 79.21 104.75"/>
        <ellipse class="cls-10" cx="75.09" cy="96.94" rx="1.57" ry="1.83"/>
      </g>
      <g>
        <g>
          <g>
            <path class="cls-12" d="M15.52,202.14c3.78,2.18,2.31,3.7,5.36,5.75,3.05,2.05,9.01,2.51,10.56,3.4s1.85,3.84,1.58,4.11c-.26.26-25.57,0-25.57,0l.87-9.76c2.82-.15,5.46-1.46,7.2-3.49Z"/>
            <path class="cls-5" d="M33.02,215.39c.15-.15.12-1.1-.19-2.08-4.36.21-12.55.54-15.42.2-3.28-.39-6.76-2.43-9.59-2.33l-.38,4.21s25.31.26,25.57,0Z"/>
          </g>
          <path class="cls-5" d="M18.59,206.09c-1.26.4-2.29.35-3.28-.63-.56-.55-1.06-1.16-1.85-1.34-.29-.07-.52.29-.3.51,1.49,1.46,3.48,3.67,5.76,2.24.4-.25.15-.94-.33-.78Z"/>
          <path class="cls-5" d="M26.84,209.91c-.5.02-.98.65-1.18,1.07-.2.42.37.77.64.37.11-.17.23-.33.38-.48.16-.15.37-.24.47-.44.12-.23-.03-.55-.31-.53Z"/>
        </g>
        <g>
          <g>
            <path class="cls-12" d="M30.33,202.14c3.78,2.18,2.31,3.7,5.36,5.75,3.05,2.05,9.01,2.51,10.56,3.4s1.85,3.84,1.58,4.11c-.26.26-25.57,0-25.57,0l.87-9.76c2.82-.15,5.46-1.46,7.2-3.49Z"/>
            <path class="cls-5" d="M47.84,215.39c.15-.15.12-1.1-.19-2.08-4.36.21-12.55.54-15.42.2-3.28-.39-6.76-2.43-9.59-2.33l-.38,4.21s25.31.26,25.57,0Z"/>
          </g>
          <path class="cls-5" d="M33.41,206.09c-1.26.4-2.29.35-3.28-.63-.56-.55-1.06-1.16-1.85-1.34-.29-.07-.52.29-.3.51,1.49,1.46,3.48,3.67,5.76,2.24.4-.25.15-.94-.33-.78Z"/>
          <path class="cls-5" d="M38.17,209.09c-.37,0-.67.37-.88.63-.24.29-.45.6-.58.95-.16.42.47.64.7.29.17-.25.31-.51.52-.74.2-.22.52-.4.59-.7.05-.22-.1-.43-.33-.44Z"/>
          <path class="cls-5" d="M41.65,209.91c-.5.02-.98.65-1.18,1.07-.2.42.37.77.64.37.11-.17.23-.33.38-.48.16-.15.37-.24.47-.44.12-.23-.03-.55-.31-.53Z"/>
        </g>
        <path class="cls-8" d="M20.27,206.12c-.85-6.01-1.47-12.05-1.84-18.1-.38-6.01-.52-12.03-.43-18.05.05-3.4.18-6.8.37-10.2.02-.4-.6-.4-.63,0-.35,6.07-.47,12.15-.35,18.22.12,6.08.47,12.15,1.07,18.19.33,3.38.74,6.75,1.21,10.11.06.4.66.23.6-.17Z"/>
        <path class="cls-10" d="M2.1,114.87h0C.47,119.44-.22,124.29.06,129.14l6.7,78.06h14.44l.72-26.21-2.99-34.01-2.58-30.67-14.24-1.43Z"/>
        <g>
          <path class="cls-3" d="M63.23,58.29c.67,1.24.62,4.42.21,5.13-.41.71-2.35.61-2.35.61l2.14-5.74Z"/>
          <path class="cls-7" d="M51.69,66.92s1.17-8.37,1.53-9.79c.35-1.42,5.03-8.82,6.24-8.13,1.21.7-2.83,8.01-2.83,8.01,0,0,1.32-1.02,1.87-.71.55.32.55.71.55.71,0,0,1.45-.84,1.88-.4.43.43.61.94.61.94,0,0,1.42-.23,1.88,1.14s-4.1,10.53-4.1,10.53l-7.61-2.29Z"/>
        </g>
        <path class="cls-7" d="M29.04,62.41s-.04-8.21.52-9.16c.55-.96,5.48-4.9,6.15-5.29.67-.39,1.64-.17,1.93.34,0,0,1.76-.95,2.45-.95s1.16.46.9.9c-.26.45-3.95,4.39-3.95,5.12s-.31,3.98.25,3.65c.56-.33,4.61-3.25,5.25-2.15.64,1.1-5.66,5.33-5.92,6.53-.27,1.2-1.38,1.38-1.38,1.38l-6.19-.38Z"/>
        <path class="cls-9" d="M22.59,71.15s4.66-9,5.46-10.05c.8-1.05,2.18-1.4,5.34-.62s3.22,3.03,3.22,3.03l-5.03,16.8-9-9.15Z"/>
        <g>
          <path class="cls-7" d="M24.24,47.16s1.35,13.64-.24,14.55c-1.59.92-4.29.43-4.29.43l-.52,4.96-9.26-2.15.72-4.68s-3.05-9.3-2-12.31c1.05-3.01,9.21-5.68,12.02-4.96,2.82.72,3.58,4.15,3.58,4.15Z"/>
          <path class="cls-3" d="M19.71,62.14l-2.65-1.44s-1.84,3.87,2.12,6.41l.52-4.96Z"/>
          <path class="cls-8" d="M19.67,50.25l2.72-1.98c.28-.2.61-.34.95-.41l3.68-.68c.57-.11,1.12.3,1.18.88l.62,5.7c.09.83-.5,1.58-1.33,1.68l-2.17.34c-.34.05-.68-.06-.92-.31l-1.83-1.93-3.51.32s-.07,1.75-2.18,1.75l-.64-4.69,3.44-.68Z"/>
          <path class="cls-10" d="M10.59,60.12c3.93.93,6.9-3.72,7.44-6.19.54-2.47,5.64-8.29,5.64-8.29l1.63.24s.23-1.23-1-2.47c-1.23-1.23-3.22-1.11-3.22-1.11l1.15-.79s-2.25-.32-6.26.21c-4.01.54-8.7,4.58-8.7,6.69s3.34,11.7,3.34,11.7Z"/>
          <path class="cls-10" d="M21.23,47.56c0,1.63-1.07,4.22-1.07,4.22l-1.06-1.31,2.13-2.92Z"/>
        </g>
        <path class="cls-10" d="M29.61,115.92s-.59,2.58,0,5.19c2.12,9.57,7.99,31.49,7.99,37.12,0,7.18-1.67,48.96-1.67,48.96h-16.46l-1.13-52.32-11.26-27.88-1.19-10.45,23.73-.62Z"/>
        <path class="cls-9" d="M8.4,64.3c4.45.22,9.77,1.93,12.84,3.05,1.6.58,2.85,1.91,3.41,3.61l4.28,13.04.1,22.92,3.11,7.38c.08.78.03,1.57-.15,2.33l-.29,1.22c-.57,2.43-2.56,4.19-4.91,4.34l-8.24.54c-4.99.33-10-.3-14.78-1.86l-.96-.31c-1.63-.53-2.74-2.13-2.74-3.94l1.27-33.4c0-4.91.26-10.33,2.83-14.4l.6-.95c.84-1.32,2.12-3.66,3.61-3.58Z"/>
        <path class="cls-9" d="M19.33,82.92s21.36,21.84,29.2,15.69c6.83-5.37,12.15-30.87,12.15-30.87,0,0-1.67-1.67-5.77-1.67s-5.06,1.66-5.06,1.66l-7.69,14.43s-15.69-16.72-22.42-16.72-.4,17.48-.4,17.48Z"/>
        <path class="cls-8" d="M18.49,158.87c-2.98-6.37-5.57-12.92-7.74-19.6-.56-1.72-1.08-3.44-1.59-5.18.66.1,1.33.14,2.01.11.32-.01.32-.51,0-.5-.73.03-1.45-.03-2.17-.15-.1-.31-.48-.31-.66-.13-.81-.19-1.59-.46-2.34-.83-.29-.14-.54.29-.25.43.81.4,1.67.71,2.55.91,1.95,6.77,4.32,13.42,7.09,19.91.78,1.82,1.59,3.63,2.43,5.43.21.45.88.06.67-.39Z"/>
        <path class="cls-6" d="M16.8,66.31c-.3.09-.59.21-.87.35.07-.23-.1-.54-.4-.45-1.81.57-3.73,1.19-5.05,2.64-.3.33.19.81.49.49,1.15-1.25,2.77-1.84,4.36-2.34-1.16.73-2.07,1.81-2.58,3.1-.07.17.07.36.23.41.19.05.34-.06.41-.23.62-1.57,1.98-2.82,3.59-3.32.4-.13.23-.76-.18-.64Z"/>
        <path class="cls-6" d="M29.49,91.28c-2.38-1.84-4.65-3.8-6.82-5.89-.29-.28-.73.16-.44.44,2.17,2.08,4.44,4.05,6.82,5.89.32.24.76-.2.44-.44Z"/>
        <path class="cls-6" d="M25.53,89.84c-1.65-.51-3.14-1.42-4.36-2.64-.32-.31-.8.17-.49.49,1.3,1.3,2.91,2.27,4.67,2.82.43.13.61-.53.18-.67Z"/>
        <path class="cls-6" d="M44.95,86.05c-.26-.76-.56-1.5-.89-2.23-.27-.58-.56-1.5-1.28-1.63-.2-.04-.36.05-.46.19-.17,0-.36.14-.3.36.64,2.7.97,5.46.97,8.23,0,.38.59.38.59,0,0-2.64-.3-5.27-.87-7.85.13.12.2.33.28.48.16.33.32.66.46.99.28.65.53,1.31.75,1.98.44,1.35.76,2.74.94,4.14.03.24.18.45.45.45.22,0,.48-.21.45-.45-.2-1.59-.55-3.16-1.07-4.68Z"/>
        <path class="cls-8" d="M25.93,161.06c-1.45-.36-2.85-.88-4.18-1.57-.36-.19-.69.36-.32.55,1.38.71,2.83,1.26,4.34,1.63.4.1.57-.52.17-.61Z"/>
        <path class="cls-8" d="M28.91,158.05c-.05-.2-.24-.27-.42-.24-1.71.24-3.45.25-5.17.08-.44-.05-.44.64,0,.69,1.79.18,3.58.14,5.35-.1.19-.03.28-.26.24-.42Z"/>
        <path class="cls-8" d="M19.47,184.44c-.35-5.17-.68-10.34-.8-15.52-.07-2.91-.07-5.82.02-8.73.02-.55-.84-.55-.86,0-.16,5.18-.02,10.36.25,15.53.27,5.17.65,10.33,1,15.49.2,2.89.4,5.79.59,8.68.04.55.89.55.86,0-.35-5.15-.71-10.3-1.06-15.45Z"/>
        <path class="cls-6" d="M34.15,73.51c-1.46-1.32-3.03-2.53-4.69-3.59-.82-.52-1.66-1.01-2.52-1.46-.87-.46-1.78-.98-2.78-1.11-.4-.05-.39.57,0,.62.93.12,1.83.68,2.64,1.11.83.44,1.64.92,2.43,1.42,1.59,1.02,3.08,2.17,4.48,3.43.3.27.74-.17.44-.44Z"/>
        <path class="cls-6" d="M59.56,72.78c-.72-1.33-2.01-2.21-3.43-2.65-1.65-.51-3.4-.38-5.06,0-1.07.25-2.11.6-3.14.96-.39.13-.22.75.17.62,2.09-.72,4.31-1.48,6.55-1.24,1.74.19,3.51,1.05,4.36,2.64.2.36.75.04.55-.32Z"/>
        <path class="cls-6" d="M36.14,66.33c-.78-1.66-2.25-2.96-4-3.54-1.91-.64-4.08-.33-5.77.75-.4.26-.03.91.38.65,1.53-.98,3.46-1.25,5.19-.67,1.57.52,2.85,1.71,3.55,3.2.2.44.85.06.65-.38Z"/>
        <path class="cls-12" d="M.84,96.76l16.27,2.24c2.29.32,4.62.29,6.91-.08l4.97-.8.05,5.9-5.47,1.42c-2.46.64-5.02.88-7.56.69l-15.5-2.52.31-6.86Z"/>
        <path class="cls-8" d="M11.21,46.22c-1.08.08-2.05.63-2.69,1.5-.13.18-.04.49.15.59.22.12.44.04.59-.15,0,0,.03-.04.04-.05,0,0,.01-.02.02-.02.03-.04.07-.08.11-.12.07-.08.15-.15.23-.23.02-.02.04-.03.05-.05,0,0,.02-.02.04-.03.01,0,.03-.02.03-.03.02-.02.05-.04.07-.05.09-.06.18-.12.28-.17.09-.05.18-.09.27-.14,0,0,0,0,.02,0,.02,0,.04-.02.07-.03.05-.02.1-.04.15-.05.1-.03.21-.06.31-.08.05,0,.09-.02.14-.02,0,0,0,0,.01,0,.04,0,.07,0,.11,0,.22-.02.44-.19.43-.43,0-.22-.19-.45-.43-.43Z"/>
        <path class="cls-8" d="M34.95,75.14l-2.37,4.27,3.23,4.4s4.74,1.62,4.74,1.3,1.1-3.47,1.1-3.47l-6.7-6.51Z"/>
      </g>
    </g>
  </g>
</svg>