<?xml version="1.0" encoding="UTF-8"?>
<svg id="Camada_2" data-name="Camada 2" xmlns="http://www.w3.org/2000/svg" viewBox="0 0 127.44 208.45">
  <defs>
    <style>
      .cls-1 {
        fill: #bddeff;
      }

      .cls-1, .cls-2, .cls-3, .cls-4, .cls-5, .cls-6, .cls-7, .cls-8, .cls-9, .cls-10, .cls-11, .cls-12, .cls-13, .cls-14, .cls-15, .cls-16, .cls-17 {
        stroke-width: 0px;
      }

      .cls-2 {
        fill: #d66f1a;
      }

      .cls-3 {
        fill: #99e4ff;
      }

      .cls-4 {
        fill: #f5d164;
      }

      .cls-5 {
        fill: #66707f;
      }

      .cls-6 {
        fill: #852069;
      }

      .cls-7 {
        fill: #fa955a;
      }

      .cls-8 {
        fill: #524f8a;
      }

      .cls-9 {
        fill: #1f3357;
      }

      .cls-10 {
        fill: #b6bfcd;
      }

      .cls-11 {
        fill: #4b4085;
      }

      .cls-18 {
        opacity: .65;
      }

      .cls-12 {
        fill: #5cc6ed;
      }

      .cls-13 {
        fill: #603813;
      }

      .cls-14 {
        fill: #6973db;
      }

      .cls-15 {
        fill: #485087;
      }

      .cls-16 {
        fill: #db4ab3;
      }

      .cls-17 {
        fill: #e6e6e6;
      }
    </style>
  </defs>
  <g id="Camada_2-2" data-name="Camada 2">
    <g>
      <g>
        <path class="cls-4" d="M95.21,9.28l.54-8.08c.04-.54.44-.98.98-1.05l.38-.05c.68-.1,1.29.44,1.29,1.13v4.34c0,.77.75,1.32,1.48,1.08l2.21-.71c.73-.24,1.48.31,1.48,1.08v2.27c0,.45-.26.85-.67,1.04l-4.01,1.8c-.39.17-.65.55-.67.98l-.12,2.41c-.03.53-.42.98-.95,1.06l-.93.15c-.75.12-1.41-.51-1.31-1.26l.05-.38c.1-.8-.64-1.44-1.41-1.24l-.43.11c-.72.18-1.42-.36-1.42-1.1v-.8c0-.48.3-.91.76-1.07l2-.71c.43-.15.73-.54.76-1Z"/>
        <circle class="cls-3" cx="113.33" cy="6.66" r="2.98" transform="translate(80.81 115.43) rotate(-76.72)"/>
        <circle class="cls-3" cx="106.55" cy="15.36" r="2.14"/>
        <circle class="cls-3" cx="86.83" cy="2.14" r="2.14" transform="translate(5.79 33.39) rotate(-22.5)"/>
      </g>
      <g>
        <g>
          <path class="cls-7" d="M100.03,186.41c0,.77-.04-.06.32,8.02l9.56.45v-8.98l-9.88.52Z"/>
          <path class="cls-16" d="M100.34,193.44l-1.52,3.72c-.73,2.23-2.56,3.85-4.71,4.79l-6.29,2.75c-.54.21-.95.67-1.09,1.24l-.08.35c-.26,1.1.57,2.16,1.71,2.16h19.52c1.14,0,2.07-.93,2.06-2.07l-.04-13.47-9.56.54Z"/>
          <path class="cls-17" d="M94.99,206.54l-.47-.51c-.67-.73-1.51-1.28-2.44-1.61-.62-.22-1.35-.47-2-.69l-2.25.99c-.54.21-.95.67-1.09,1.24l-.08.35c-.26,1.1.57,2.16,1.71,2.16h19.52c1.09,0,1.98-.84,2.06-1.91h-14.95Z"/>
          <path class="cls-8" d="M101.96,199.44h-4.29c-.46,0-.46.72,0,.72h4.29c.46,0,.46-.72,0-.72Z"/>
          <path class="cls-8" d="M103.06,196.91h-3.57c-.48,0-.48.74,0,.74h3.57c.48,0,.48-.74,0-.74Z"/>
          <path class="cls-8" d="M103.21,194.51h-2.74c-.45,0-.45.7,0,.7h2.74c.45,0,.45-.7,0-.7Z"/>
        </g>
        <g>
          <path class="cls-7" d="M112.55,186.41c0,.77-.04-.06.32,8.02l9.56.45v-8.98l-9.88.52Z"/>
          <path class="cls-16" d="M112.87,193.44l-1.52,3.72c-.73,2.23-2.56,3.85-4.71,4.79l-6.29,2.75c-.54.21-.95.67-1.09,1.24l-.08.35c-.26,1.1.57,2.16,1.71,2.16h19.52c1.14,0,2.07-.93,2.06-2.07l-.04-13.47-9.56.54Z"/>
          <path class="cls-17" d="M107.52,206.54l-.47-.51c-.67-.73-1.51-1.28-2.44-1.61-.62-.22-1.35-.47-2-.69l-2.25.99c-.54.21-.95.67-1.09,1.24l-.08.35c-.26,1.1.57,2.16,1.71,2.16h19.52c1.09,0,1.98-.84,2.06-1.91h-14.95Z"/>
          <path class="cls-8" d="M114.48,199.44h-4.29c-.46,0-.46.72,0,.72h4.29c.46,0,.46-.72,0-.72Z"/>
          <path class="cls-8" d="M115.58,196.91h-3.57c-.48,0-.48.74,0,.74h3.57c.48,0,.48-.74,0-.74Z"/>
          <path class="cls-8" d="M115.74,194.51h-2.74c-.45,0-.45.7,0,.7h2.74c.45,0,.45-.7,0-.7Z"/>
        </g>
        <path class="cls-16" d="M63.37,41.59c-.62.81-1.24,19.83,2.04,28.27,2.33,6,24.63,3.77,25.73,3.13,2.12-1.22,4.68-16.56,3.12-16.56-7.11,0-17.9,2.19-17.9,2.19l-3.96-18.84-9.02,1.79Z"/>
        <g>
          <path class="cls-9" d="M63.37,41.59l-.45-2.52s-2.11-6.52-1.43-7.7c.68-1.18,8.8-4.03,9.16-3.4.36.63.93,7.33.93,7.33l.82,4.5-9.02,1.79Z"/>
          <path class="cls-9" d="M61.49,31.37c-.64.64-2.19,3.32-1.89,3.61.3.3,2.09,2.18,2.44,1.98.35-.2.88-.75.88-.75,0,0-.34-1.93-.34-2.04s-1.09-2.8-1.09-2.8Z"/>
          <path class="cls-9" d="M71.8,37.43c.39-.68,2.56-3.85,2.56-5.24s-.48-4.3-1.05-4.3-1.39,3.74-1.39,3.74l-1.28,1.44,1.16,4.37Z"/>
          <path class="cls-9" d="M70.65,27.97l-.98-1.61c-.42-.69-1.08-1.21-1.85-1.46-1.38-.44-3.45-1.03-3.45-.51,0,.77,2.78,2.47,2.78,2.47l.32,1.94,3.19-.82Z"/>
          <path class="cls-15" d="M67.42,29.92c-.28.19-.57.39-.85.58-.24.16-.53.31-.72.54-.41.5-.25,1.33-.11,1.9.16.69.32,1.35.32,2.06,0,.2.05.59-.16.71-.26.15-.72.01-.97-.08-.11-.04-.21-.03-.28.01-.14.02-.27.13-.27.31,0,.12-.05.22-.16.32-.1.08-.22.12-.37.12-.31,0-.64-.17-.79-.45-.16-.29-.62-.16-.62.17,0,.08-.05.16-.13.22-.12.09-.27.12-.41.16-.41.12-.23.76.18.64.29-.08.59-.22.8-.43.31.24.7.37,1.07.34.42-.04.79-.27.98-.62.57.16,1.35.17,1.7-.35.35-.53.23-1.38.15-1.97-.09-.73-.41-1.45-.4-2.18,0-.13,0-.31.08-.41.08-.11.27-.19.38-.27l.99-.67c.41-.28.02-.94-.39-.66Z"/>
        </g>
        <path class="cls-10" d="M89.79,107.52s2.55,64.63,3.81,77.23c.18,1.82,1.75,3.19,3.58,3.12l12.93-.49-1.85-77.24-18.47-2.62Z"/>
        <path class="cls-10" d="M122.42,105.69c1.39,1.39,3.81,63.8,3.25,78.09-.08,1.93-1.66,3.47-3.59,3.49l-11.97.12-7.81-80.43,20.12-1.26Z"/>
        <path class="cls-16" d="M115.26,56.79c-8.47,2.14-12.79,27.19-12.79,27.19l-19.02,1.31c-2.67.18-4.75,2.41-4.75,5.08v2.83c0,2.8,2.25,5.07,5.05,5.1l16.52.15c7.19.07,13.76-4.11,16.73-10.66,3.83-8.42,7.83-17.27,8.53-21.44.62-3.72-2.27-11.59-10.28-9.57Z"/>
        <path class="cls-16" d="M122.99,60.78c1.12,7.07-1.14,20.65-.85,32.28.22,8.91,1.55,13.93.93,14.55-3.38,3.38-32.55,4.01-34.03,1.44-1.48-2.57-1.81-49.27,2.57-51.8,4.39-2.53,30.53-1.79,31.37,3.54Z"/>
        <path class="cls-11" d="M91.31,98.27l-.35,4c-.16,1.84,1.29,3.42,3.13,3.42h18.41l-3.2-7.15,1.77-1.45c2.25-1.83,3.1-4.88,2.13-7.61l-.53-1.49-8.01,8.77-13.35,1.52Z"/>
        <path class="cls-11" d="M92.43,84.33l2.45-11.65c.76-2.1,3.63-2.36,4.75-.43l1.45,2.51,9.03-7.55-3.46,6.72-6.05,9.97-8.18.43Z"/>
        <path class="cls-7" d="M99.95,55.89c-2.16,1.6-2.86,7.46,3.29,6.15,6.15-1.31,9.27-5.58,9.27-5.58l-3.22-.42-9.34-.15Z"/>
        <path class="cls-9" d="M66.77,93.56c1.44-2.49,4.1-4.91,6.25-5.25,1.62-.26,5.84-.31,7.82-.33.74,0,1.46.21,2.07.63,1.41.95,3.67,2.79,2.75,4.38-1.3,2.25-6.69,1.67-6.69,1.67,0,0,2.06,1.61,1.47,2.2-.59.59-3.73,1.38-4.43.67-.7-.7-.93-.88-.93-.88,0,0-1.75,1.01-2.2.56-.45-.45-.06-5.15-.06-5.15,0,0-2.49.75-2.8,1.07,0,0-1.48,1.93-2.4,2.13-1.47.32-1.39-.73-.84-1.7Z"/>
        <g>
          <path class="cls-7" d="M95.59,46.82s.07,7.01,2.39,7.75c2.66.85,10.51-3.41,11.05-3.95.54-.54,3.86-11.36,1.18-14.04s-11.09-1.92-12.74-.56c-3.17,2.61-1.88,10.79-1.88,10.79Z"/>
          <path class="cls-2" d="M98.09,48.03c-.17-.01-.33-.02-.5-.03,0-.4,0-.8,0-1.2,0-.22-.2-.44-.43-.43-.23.01-.43.19-.43.43v.7c0,.23,0,.47,0,.7,0,.17.06.35.19.47.13.12.3.16.47.17.23.02.46.03.69.04.22.01.44-.21.43-.43-.01-.24-.19-.41-.43-.43Z"/>
          <path class="cls-16" d="M95.95,37.99c-.72-.2-3.54-3.93-1.31-4.42s3.08.32,3.08.32c0,0-.54-1.8.89-2.32,1.43-.52,3.34,1.64,3.34,1.64,0,0,1.06-2.69,3.01-2.03,1.95.66,2.15,2.1,2.15,2.1,0,0,2.99-1.92,4.32-.59.94.94.35,3.52.35,3.69s1.08,1.5.87,4.46c-.21,2.96-2.69,7.31-2.69,7.31l-5.18-5.96-1.04-5.4s-1.71,1.67-3.24,1.01c-1.53-.66-2.92-.66-2.92-.66l-1.62.84Z"/>
          <g>
            <path class="cls-6" d="M107.79,36.07c-1,.59-1.93,1.31-2.74,2.15-.26.27.15.67.41.41.78-.8,1.65-1.49,2.62-2.06.32-.19.03-.68-.29-.5Z"/>
            <path class="cls-6" d="M108.08,37.86c-.81.46-1.57,1-2.27,1.6-.11.1-.1.29,0,.39.11.11.28.1.39,0,.67-.58,1.39-1.08,2.16-1.52.31-.17.03-.65-.28-.48Z"/>
          </g>
          <g>
            <rect class="cls-11" x="89.1" y="38.26" width="14.03" height="9.37" rx="4.68" ry="4.68"/>
            <path class="cls-9" d="M100.71,38.26h-3.39c1.34,0,2.42,1.08,2.42,2.42v4.53c0,1.34-1.08,2.42-2.42,2.42h3.39c1.34,0,3.05-1.19,3.05-2.52v-4.23c0-1.34-1.71-2.62-3.05-2.62Z"/>
            <path class="cls-9" d="M101.63,40.76l4.56.23c.9.05,1.6.79,1.6,1.69v2.06c0,.54-.43.97-.97.97h-4.71l-.49-4.94Z"/>
            <path class="cls-9" d="M106.72,42.19h5.46c.29,0,.49.29.39.56l-.76,2.08c-.07.18-.25.29-.44.27l-4.1-.44-.56-2.47Z"/>
            <polygon class="cls-3" points="90.66 46.51 93.35 39.13 94.95 39.13 93.38 44.42 96.65 39.13 97.32 39.13 94.67 46.51 90.66 46.51"/>
          </g>
          <path class="cls-7" d="M108.88,48.74c.14.23.42,7.72.42,7.72,0,0-2.48,2.59-5.36,2.59s-3.24-1.85-3.24-1.85v-4.13c0-.23,8.18-4.33,8.18-4.33Z"/>
          <path class="cls-2" d="M100.7,54.26l5.69-2.12s-.38,2.71-1.8,4.12-3.89.23-3.89.23v-2.24Z"/>
        </g>
        <g class="cls-18">
          <path class="cls-12" d="M111.87,135.25H25.26C-5.28,101,11.42,36.03,0,25.79c3.72,0,74.31-.14,75.32,1.06,0,0,6.33.97,12.67,21.86,2.85,9.41,3.1,26.46,6.51,55.34.72,6.13,2.24,11.48,5.07,15.19,0,0,0,0,0,0,5.77,7.54,11.93,15.87,12.29,16.01h.01Z"/>
        </g>
        <g>
          <polygon class="cls-14" points="69.38 76.55 46.15 76.55 43.4 59.69 66.63 59.69 69.38 76.55"/>
          <polygon class="cls-16" points="45.17 70.51 53.09 68.96 54.71 70.51 58.1 70.51 61.08 67.74 64.58 68.12 65.71 70.06 68.34 70.17 69.38 76.55 46.15 76.55 45.17 70.51"/>
          <polygon class="cls-4" points="50.24 62.19 64.58 62.19 58.77 63.63 59.8 65.16 46.08 65.16 50.24 62.19"/>
        </g>
        <path class="cls-14" d="M69.69,88.28H11.94c-.81,0-1.46-.66-1.46-1.46h0c0-.81.66-1.46,1.46-1.46h57.75c.81,0,1.46.66,1.46,1.46h0c0,.81-.66,1.46-1.46,1.46Z"/>
        <path class="cls-14" d="M72.09,95.76H14.34c-.81,0-1.46-.66-1.46-1.46h0c0-.81.66-1.46,1.46-1.46h57.75c.81,0,1.46.66,1.46,1.46h0c0,.81-.66,1.46-1.46,1.46Z"/>
        <path class="cls-6" d="M105.58,85.56c-1.5-1.14-3.19-2.35-5.18-2.16-.07,0-.13.04-.16.08-.34-.04-.69-.02-1.04.01-1.15.11-2.31.25-3.45.47-1.11.21-2.19.35-3.33.37-1.24.02-2.49.02-3.69.36-.47.13-.27.87.2.73.98-.28,1.99-.31,3.01-.33,1.02-.01,2.04-.05,3.05-.22,1.07-.19,2.12-.39,3.2-.51.93-.1,1.97-.35,2.8.19.89.58,1.29,1.66,1.64,2.62.17.46.91.26.73-.2-.35-.95-.72-1.94-1.47-2.66-.16-.15-.33-.29-.52-.41,1.48.21,2.78,1.17,3.96,2.07.25.19.48-.23.24-.41Z"/>
        <path class="cls-6" d="M119.33,78.38c-3.19,5.14-6.89,9.96-11.03,14.37-1.14,1.22-2.32,2.4-3.53,3.56-.04,0-.08,0-.12,0-4.33.78-8.72,1.26-13.11,1.42-1.25.05-2.5.07-3.75.07-.47,0-.47.74,0,.74,4.45,0,8.89-.3,13.3-.92,1.26-.17,2.51-.38,3.76-.6.16-.03.24-.13.26-.25,0,0,.01,0,.02-.02,4.39-4.19,8.36-8.81,11.84-13.77.99-1.41,1.94-2.85,2.85-4.32.19-.31-.3-.6-.49-.29Z"/>
        <path class="cls-6" d="M112.49,62.89c-2.74,4.58-5.48,9.17-8.23,13.75-.77,1.29-1.54,2.57-2.31,3.86-.24.4.38.76.62.36l8.23-13.75c.77-1.29,1.54-2.57,2.31-3.86.24-.4-.38-.76-.62-.36Z"/>
        <path class="cls-6" d="M89.12,64.64c-.29,2.85-.58,5.71-.87,8.56-.05.47.69.47.74,0,.29-2.85.58-5.71.87-8.56.05-.47-.69-.47-.74,0Z"/>
        <path class="cls-5" d="M104.53,127.15l3.02,59.74c.02.3.48.28.46-.02l-3.02-59.74c-.02-.3-.48-.28-.46.02Z"/>
        <path class="cls-13" d="M99.34,50.91c-.12-.19-.35-.25-.55-.15-.02,0-.03.02-.05.02-.04.02-.03.02.02,0,0,.01-.06.02-.08.03-.06.02-.12.04-.18.05-.01,0-.09,0-.1.02,0,0,0,0,0,0-.07,0-.14,0-.2.01-.13,0-.26,0-.38-.02-.06,0-.13-.01-.19-.02-.03,0-.07,0-.1-.01.06,0,.07,0,.03,0-.02,0-.04,0-.05,0-.11-.02-.21-.02-.31.04-.08.05-.16.15-.19.24-.02.1-.02.22.04.31.05.08.14.17.24.19.65.09,1.3.16,1.91-.15.19-.1.26-.38.15-.55Z"/>
        <polygon class="cls-14" points="76.16 97.44 82.25 97.44 82.09 106.83 76.16 97.44"/>
        <path class="cls-14" d="M73.18,129.88l-3.3-2.09c-2.75-1.74-4.96-4.21-6.38-7.14l-1.36-2.8h22.82c1.08,3.63,3.32,6.82,6.36,9.07l4,2.96h-22.14Z"/>
        <polygon class="cls-17" points="113.85 101 126.01 101 127.44 103.31 113.65 103.31 113.85 101"/>
        <path class="cls-17" d="M108.49,77.79l6.01-10.16c.14-.23.44-.31.67-.17l2.04,1.21c.23.14.31.44.17.67l-5.9,10c-.13.22-.4.3-.63.19l-2.15-1.05c-.26-.12-.35-.44-.21-.69Z"/>
        <path class="cls-11" d="M76.27,129.88l-4.83-3.24s-5.21-3.32-2.99-4.6c2.22-1.28,7.09,1.82,7.09,1.82l5.39.36s1.46,2.03,1.86,2.26,4.4.26,4.57.43,3.17,2.96,3.17,2.96h-14.27Z"/>
      </g>
      <g>
        <g>
          <polygon class="cls-11" points="27.24 134.44 30.15 138.69 35.14 135.28 30.89 131.95 27.24 134.44"/>
          <polygon class="cls-11" points="38.35 150.71 35.45 146.46 40.3 142.84 38.35 150.71"/>
          <polygon class="cls-11" points="51.36 126.79 54.26 131.04 42.45 139.1 51.36 126.79"/>
          <polygon class="cls-11" points="38.35 150.71 39.12 141.37 30.15 138.69 42.17 130.48 54.26 131.04 50.37 142.5 38.35 150.71"/>
          <polygon class="cls-1" points="35.45 146.46 36.22 137.12 27.24 134.44 39.26 126.23 51.36 126.79 47.47 138.25 35.45 146.46"/>
        </g>
        <ellipse class="cls-16" cx="42.02" cy="132.84" rx="3.61" ry="3.15" transform="translate(-67.59 46.83) rotate(-34.33)"/>
      </g>
    </g>
  </g>
</svg>